<?xml version="1.0" encoding="UTF-8" standalone="no"?>
<!-- Created with Inkscape (http://www.inkscape.org/) -->

<svg
   width="72.143219mm"
   height="63.369324mm"
   viewBox="0 0 72.143219 63.369324"
   version="1.1"
   id="svg5"
   inkscape:version="1.2.2 (732a01da63, 2022-12-09)"
   sodipodi:docname="calorie-manager-logo.svg"
   inkscape:export-filename="calorie-manager-logo.png"
   inkscape:export-xdpi="96"
   inkscape:export-ydpi="96"
   xmlns:inkscape="http://www.inkscape.org/namespaces/inkscape"
   xmlns:sodipodi="http://sodipodi.sourceforge.net/DTD/sodipodi-0.dtd"
   xmlns="http://www.w3.org/2000/svg"
   xmlns:svg="http://www.w3.org/2000/svg">
  <sodipodi:namedview
     id="namedview7"
     pagecolor="#ffffff"
     bordercolor="#000000"
     borderopacity="0.25"
     inkscape:showpageshadow="2"
     inkscape:pageopacity="0.0"
     inkscape:pagecheckerboard="0"
     inkscape:deskcolor="#d1d1d1"
     inkscape:document-units="mm"
     showgrid="false"
     inkscape:zoom="0.5946522"
     inkscape:cx="211.88856"
     inkscape:cy="470.02264"
     inkscape:window-width="1296"
     inkscape:window-height="890"
     inkscape:window-x="-6"
     inkscape:window-y="-6"
     inkscape:window-maximized="1"
     inkscape:current-layer="layer1" />
  <defs
     id="defs2" />
  <g
     inkscape:label="Layer 1"
     inkscape:groupmode="layer"
     id="layer1"
     transform="translate(-30.291671,-19.999998)">
    <g
       aria-label="C"
       id="text132"
       style="font-size:50.8px;font-family:'Freestyle Script';-inkscape-font-specification:'Freestyle Script';fill:#008080;stroke-width:0.264583">
      <path
         d="m 51.549288,19.999998 q 1.661914,0 2.554883,1.190625 0.719336,0.942578 0.719336,2.282031 0,2.406055 -1.612305,5.481836 -1.413867,2.654102 -3.522265,4.7625 -1.389063,1.364258 -2.182813,1.364258 -0.520898,0 -0.967383,-0.520898 -0.32246,-0.372071 -0.32246,-0.84336 0,-0.868164 1.513085,-1.984375 2.133204,-1.5875 3.398243,-3.472656 1.860351,-2.728516 1.860351,-4.613672 0,-0.768945 -0.347266,-1.141015 -0.32246,-0.372071 -0.992187,-0.372071 -1.364258,0 -3.869531,1.984375 -2.852539,2.232422 -6.027539,6.077149 -4.043164,4.886523 -6.151563,9.624218 -2.182812,4.911328 -2.182812,8.383984 0,1.661915 0.967383,2.827735 1.066601,1.314648 2.604492,1.314648 2.678906,0 6.746875,-4.167187 1.215429,-1.265039 2.951758,-3.671094 1.141015,-1.537891 1.463476,-2.182812 0.37207,-0.719336 0.868164,-0.719336 0.545703,0 0.545703,0.520898 0,1.116211 -2.778125,5.010547 -2.306836,3.249414 -5.084961,5.308203 -3.12539,2.306836 -5.903515,2.306836 -2.902148,0 -4.489648,-2.604492 -1.016993,-1.661914 -1.016993,-3.795117 0,-5.357813 5.060157,-13.518555 4.316015,-6.945312 9.10332,-11.186914 4.142382,-3.646289 7.09414,-3.646289 z"
         id="path1330" />
    </g>
    <g
       aria-label="M"
       id="text132-2"
       style="font-size:50.8px;font-family:'Freestyle Script';-inkscape-font-specification:'Freestyle Script';fill:#008080;stroke-width:0.264583">
      <path
         d="m 47.409307,71.834679 q 0.79375,-1.16582 3.671094,-5.605859 2.455664,-3.795118 7.838281,-10.938868 3.12539,-4.142382 5.655468,-6.945312 1.513086,-1.686719 2.678907,-1.686719 0.669726,0 1.116211,0.471289 0.396875,0.372071 0.396875,0.942579 0,0.843359 -1.016993,2.654101 -0.198437,0.37207 -2.033984,3.59668 -3.274219,5.804296 -4.440039,8.284765 -3.199805,6.796484 -4.688086,11.583789 -0.868164,2.852539 -0.868164,4.191992 0,0.297656 0.04961,0.620117 0.124024,0.967383 0.124024,1.141016 0,0.719336 -0.545703,1.339453 -0.471289,0.570508 -1.066602,0.570508 -0.694531,0 -1.141015,-0.818555 -0.372071,-0.620117 -0.372071,-1.736328 0,-7.019726 11.707813,-27.582812 -6.126758,6.548437 -13.568164,18.752344 -1.63711,2.654101 -2.703711,3.596679 -1.041797,0.917774 -1.984375,0.917774 -0.942578,0 -1.389063,-0.818555 -0.297656,-0.545703 -0.297656,-1.265039 0,-6.201172 7.366992,-19.521289 -2.505273,2.554883 -4.812109,5.92832 -4.191992,6.225977 -7.491016,12.774414 -1.562695,3.150195 -3.795117,8.408789 -1.116211,2.678906 -2.579687,2.678906 -0.37207,0 -0.620117,-0.322461 -0.198438,-0.223242 -0.198438,-0.545703 0,-0.471289 0.917774,-2.579687 1.95957,-4.638477 3.001367,-6.672461 5.333008,-10.393164 12.625586,-19.546093 3.050976,-3.819922 4.216796,-4.960938 1.21543,-1.16582 2.00918,-1.16582 0.496094,0 0.967383,0.446484 0.570508,0.520899 0.570508,1.190625 0,0.744141 -1.041797,2.455664 -2.976563,4.861719 -5.481836,10.914062 -2.158008,5.457032 -2.778126,9.252149 z"
         id="path1335" />
    </g>
    <g
       aria-label="alorie"
       id="text341"
       style="font-size:25.3998px;font-family:'Freestyle Script';-inkscape-font-specification:'Freestyle Script';fill:#008080;stroke-width:0.264581">
      <path
         d="m 58.300011,33.654872 q -0.409274,0.71933 -0.806146,1.21542 -0.781341,0.967375 -1.55028,0.967375 -0.669722,0 -1.041789,-0.632515 -0.235643,-0.409274 -0.235643,-0.967375 0,-1.376649 0.868157,-3.03855 0.967376,-1.847935 2.331623,-2.840114 0.892961,-0.644917 1.723912,-0.644917 0.520894,0 0.868157,0.322458 0.297654,0.285252 0.297654,0.644917 0,0.272849 -0.210838,0.756537 0.186033,0.260447 0.186033,0.458883 0,0.260447 -0.347262,0.855755 -0.359666,0.60771 -0.719331,1.612292 -0.384469,1.066593 -0.384469,1.71151 0,0.520894 0.310056,0.855755 0.08682,0.08682 0.508492,0.285251 0.310056,0.148827 0.310056,0.520895 0,0.235642 -0.173631,0.384469 -0.186034,0.16123 -0.434079,0.16123 -0.669721,0 -1.153409,-0.595308 -0.396872,-0.483688 -0.396872,-1.21542 0,-0.248045 0.04961,-0.818548 z m 1.550281,-4.080339 q -0.148827,-0.27285 -0.322458,-0.396872 -0.173632,-0.136425 -0.372068,-0.136425 -0.942571,0 -2.04637,1.649499 -1.21542,1.82313 -1.21542,3.088159 0,0.310056 0.11162,0.471285 0.124022,0.16123 0.359665,0.16123 0.595308,0 1.389051,-1.26503 0.446481,-0.694525 1.1038,-2.04637 0.434079,-0.88056 0.632515,-1.165811 0.09922,-0.148827 0.359665,-0.359665 z"
         id="path1340" />
      <path
         d="m 63.260909,31.583696 q -0.372067,0.967376 -0.558101,1.562683 -0.186033,0.595308 -0.186033,0.830951 0,0.310056 0.297654,0.310056 0.44648,0 1.153408,-0.843353 0.334861,-0.409274 0.99218,-1.475867 0.260447,-0.421676 0.545699,-0.421676 0.322458,0 0.322458,0.310056 0,0.533296 -1.227822,2.157991 -1.277431,1.699107 -2.368829,1.699107 -0.471285,0 -0.768939,-0.396872 -0.210838,-0.285251 -0.210838,-0.694525 0,-0.694526 0.421676,-1.922348 0.421676,-1.227823 1.252627,-2.988942 2.133186,-4.47721 4.353188,-7.379336 1.773521,-2.331622 2.939332,-2.331622 0.372068,0 0.60771,0.285252 0.248045,0.285251 0.248045,0.657319 0,1.736314 -3.100561,5.779446 -1.389052,1.798326 -3.323802,3.596651 -0.508492,0.471286 -1.389052,1.265029 z m 0.88056,-1.971957 q 2.579667,-2.207599 4.613635,-5.58101 1.054191,-1.748717 1.054191,-2.31922 0,-0.27285 -0.235642,-0.27285 -0.682124,0 -2.48045,2.716092 -1.488269,2.232405 -2.951734,5.456988 z"
         id="path1342" />
      <path
         d="m 71.471196,27.701794 q 1.016984,0 1.016984,1.240224 0,1.649499 -1.525476,4.179557 -1.661901,2.740896 -3.212182,2.740896 -0.71933,0 -1.054191,-0.669721 -0.173631,-0.334861 -0.173631,-0.806146 0,-1.587487 1.091397,-3.447824 1.016985,-1.723912 2.393634,-2.678885 0.806146,-0.558101 1.463465,-0.558101 z m -1.289834,4.688048 q -0.310056,-0.248044 -0.310056,-0.384469 0,-0.09922 0.396872,-0.545699 1.116202,-1.252627 1.116202,-2.021566 0,-0.09922 -0.06201,-0.198436 -0.09922,-0.186034 -0.310056,-0.186034 -0.396872,0 -1.165811,0.76894 -0.99218,0.992179 -1.513074,2.04637 -0.60771,1.203018 -0.60771,1.996762 0,0.210838 0.11162,0.372067 0.161229,0.223241 0.409274,0.223241 0.595308,0 1.277431,-0.892962 0.297654,-0.372068 0.483688,-0.768939 0.186034,-0.396872 0.17363,-0.409275 z"
         id="path1344" />
      <path
         d="m 74.832205,31.620903 q 1.21542,-1.302236 2.802908,-2.54246 0.570503,-0.446481 1.21542,-0.830951 0.322458,-0.186033 0.409274,-0.186033 0.186034,0 0.372067,0.272849 0.111621,0.148827 0.111621,0.272849 0,0.223241 -0.471286,0.607711 -1.265029,1.004581 -1.265029,1.513074 0,0.285251 0.322459,0.285251 0.533296,0 1.835532,-0.880559 0.22324,-0.148827 0.372067,-0.148827 0.09922,0 0.198436,0.09922 0.11162,0.11162 0.11162,0.235642 0,0.372068 -1.041788,1.141007 -1.091398,0.818548 -2.071175,0.818548 -0.396872,0 -0.731733,-0.210838 -0.285251,-0.173631 -0.285251,-0.620112 0,-0.310056 0.260447,-0.706928 -0.979778,0.694526 -2.306818,2.381231 -0.768939,1.041789 -1.525476,2.567265 -0.285252,0.570503 -0.706928,0.570503 -0.458883,0 -0.458883,-0.434078 0,-0.421677 0.71933,-2.257209 1.066593,-2.728494 2.232404,-4.229166 0.71933,-0.930168 1.203018,-0.930168 0.161229,0 0.297654,0.09922 0.161229,0.124022 0.161229,0.310056 0,0.186033 -0.248045,0.520894 -0.04961,0.06201 -0.657319,0.83095 -0.558101,0.731733 -0.855755,1.451063 z"
         id="path1346" />
      <path
         d="m 83.58819,28.272297 q 0.210838,0 0.347263,0.161229 0.09922,0.136425 0.09922,0.272849 0,0.223241 -0.359665,0.744135 -1.289834,1.996762 -1.835532,3.286595 -0.582906,1.327041 -1.029387,2.728494 -0.198436,0.620113 -0.620112,0.620113 -0.248045,0 -0.396872,-0.198436 -0.136425,-0.161229 -0.136425,-0.347263 0,-0.372067 0.793744,-2.480449 0.620112,-1.661901 2.009164,-3.671065 0.446481,-0.657319 0.669721,-0.880559 0.223241,-0.235643 0.458883,-0.235643 z m 2.356427,-4.601233 q 0.558101,0 0.558101,0.570503 0,0.520894 -0.545699,1.153409 -0.520894,0.60771 -1.004582,0.60771 -0.235642,0 -0.384469,-0.173632 -0.148827,-0.161229 -0.148827,-0.396871 0,-0.595308 0.657319,-1.265029 0.483687,-0.49609 0.868157,-0.49609 z"
         id="path1348" />
      <path
         d="m 84.654783,33.320011 v 0.22324 q 0,0.27285 0.136425,0.471286 0.310056,0.458883 1.016984,0.458883 1.550281,0 3.584249,-2.381231 0.359665,-0.409275 0.60771,-0.409275 0.136425,0 0.248045,0.136425 0.07441,0.09922 0.07441,0.186034 0,0.483687 -1.190616,1.637096 -0.930169,0.905364 -1.984359,1.475868 -1.054191,0.570503 -1.959555,0.570503 -0.930169,0 -1.463465,-0.644917 -0.359665,-0.446481 -0.359665,-1.21542 0,-2.09598 1.971957,-4.105143 1.599889,-1.637097 2.790505,-1.637097 0.322458,0 0.582906,0.198436 0.322458,0.260447 0.322458,0.682124 0,0.657319 -0.60771,1.612292 -1.252627,1.984359 -3.770283,2.740896 z m 0.27285,-0.967375 q 0.868157,-0.297654 1.364247,-0.669722 0.868157,-0.669721 1.376649,-1.513074 0.186034,-0.297653 0.186034,-0.533296 0,-0.248045 -0.235643,-0.248045 -0.322458,0 -0.917766,0.483688 -1.066593,0.855755 -1.773521,2.480449 z"
         id="path1350" />
    </g>
    <g
       aria-label="anager"
       id="text341-9"
       style="font-size:25.4px;font-family:'Freestyle Script';-inkscape-font-specification:'Freestyle Script';fill:#008080;stroke-width:0.264583">
      <path
         d="m 63.404713,74.241197 q -0.409277,0.719336 -0.806152,1.21543 -0.781348,0.967383 -1.550293,0.967383 -0.669726,0 -1.041797,-0.63252 -0.235644,-0.409277 -0.235644,-0.967383 0,-1.37666 0.868164,-3.038574 0.967383,-1.847949 2.33164,-2.840136 0.892969,-0.644922 1.723926,-0.644922 0.520899,0 0.868164,0.322461 0.297656,0.285254 0.297656,0.644921 0,0.272852 -0.210839,0.756543 0.186035,0.26045 0.186035,0.458887 0,0.260449 -0.347266,0.855762 -0.359668,0.607715 -0.719336,1.612305 -0.384472,1.066601 -0.384472,1.711523 0,0.520898 0.310058,0.855762 0.08682,0.08682 0.508496,0.285254 0.310059,0.148828 0.310059,0.520898 0,0.235644 -0.173633,0.384473 -0.186035,0.16123 -0.434082,0.16123 -0.669727,0 -1.153418,-0.595312 -0.396875,-0.483692 -0.396875,-1.21543 0,-0.248047 0.04961,-0.818555 z m 1.550293,-4.080371 q -0.148828,-0.272851 -0.322461,-0.396875 -0.173632,-0.136426 -0.37207,-0.136426 -0.942578,0 -2.046387,1.649512 -1.215429,1.823145 -1.215429,3.088184 0,0.310058 0.111621,0.471289 0.124023,0.16123 0.359668,0.16123 0.595312,0 1.389062,-1.265039 0.446485,-0.694531 1.103809,-2.046387 0.434082,-0.880566 0.632519,-1.16582 0.09922,-0.148828 0.359668,-0.359668 z"
         id="path1365" />
      <path
         d="m 68.6261,72.03358 q 0.161231,-0.148828 0.310059,-0.297656 2.59209,-2.530078 3.472656,-2.530078 0.483691,0 0.483691,0.533301 0,0.37207 -0.434082,0.880566 -2.368847,2.765723 -2.368847,4.874121 0,0.682129 0.37207,1.302246 0.173633,0.285254 0.173633,0.446484 0,0.148829 -0.148828,0.285254 -0.161231,0.173633 -0.384473,0.173633 -0.508496,0 -0.855762,-0.644922 -0.334863,-0.607715 -0.334863,-1.475879 0,-1.674316 1.265039,-3.7083 -1.686719,1.079004 -3.137793,3.819921 -0.37207,0.657325 -0.79375,0.657325 -0.21084,0 -0.347265,-0.148828 -0.173633,-0.173633 -0.173633,-0.446485 0,-0.669726 1.525488,-3.509863 0.818555,-1.537891 1.289844,-2.232422 0.471289,-0.682129 0.806152,-0.682129 0.161231,0 0.310059,0.148828 0.173632,0.173633 0.173632,0.396875 0,0.272852 -0.359668,0.781348 -0.520898,0.756543 -0.843359,1.37666 z"
         id="path1367" />
      <path
         d="m 76.513991,74.241197 q -0.409277,0.719336 -0.806152,1.21543 -0.781348,0.967383 -1.550293,0.967383 -0.669727,0 -1.041797,-0.63252 -0.235645,-0.409277 -0.235645,-0.967383 0,-1.37666 0.868165,-3.038574 0.967382,-1.847949 2.33164,-2.840136 0.892969,-0.644922 1.723926,-0.644922 0.520898,0 0.868164,0.322461 0.297656,0.285254 0.297656,0.644921 0,0.272852 -0.21084,0.756543 0.186035,0.26045 0.186035,0.458887 0,0.260449 -0.347265,0.855762 -0.359668,0.607715 -0.719336,1.612305 -0.384473,1.066601 -0.384473,1.711523 0,0.520898 0.310059,0.855762 0.08682,0.08682 0.508496,0.285254 0.310059,0.148828 0.310059,0.520898 0,0.235644 -0.173633,0.384473 -0.186035,0.16123 -0.434082,0.16123 -0.669727,0 -1.153418,-0.595312 -0.396875,-0.483692 -0.396875,-1.21543 0,-0.248047 0.04961,-0.818555 z m 1.550293,-4.080371 q -0.148828,-0.272851 -0.322461,-0.396875 -0.173633,-0.136426 -0.37207,-0.136426 -0.942578,0 -2.046387,1.649512 -1.21543,1.823145 -1.21543,3.088184 0,0.310058 0.111622,0.471289 0.124023,0.16123 0.359668,0.16123 0.595312,0 1.389062,-1.265039 0.446484,-0.694531 1.103809,-2.046387 0.434082,-0.880566 0.632519,-1.16582 0.09922,-0.148828 0.359668,-0.359668 z"
         id="path1369" />
      <path
         d="m 83.149245,75.220982 q 1.327051,-0.967382 1.971973,-1.761132 0.95498,-1.153418 1.351855,-1.872754 0.198438,-0.322461 0.409277,-0.322461 0.297657,0 0.297657,0.285254 0,0.334863 -0.471289,1.116211 -1.463477,2.38125 -4.39043,4.154785 -1.364258,2.852539 -2.00918,3.869531 -1.711523,2.678906 -3.224609,2.678906 -0.79375,0 -1.141016,-0.620117 -0.198437,-0.359668 -0.198437,-0.818555 0,-1.947168 2.505273,-3.733105 0.396875,-0.297656 3.212207,-1.860352 0.545703,-1.153418 0.84336,-1.810742 -1.302246,1.364258 -2.158008,1.364258 -0.533301,0 -0.830957,-0.545703 -0.186035,-0.359668 -0.186035,-0.744141 0,-0.892969 0.731738,-2.294433 1.041797,-2.021582 2.505273,-3.199805 1.227832,-0.979785 2.170411,-0.979785 0.483691,0 0.830957,0.359668 0.235644,0.235644 0.235644,0.694531 0,0.570508 -0.384473,1.413867 0.285254,0.272852 0.285254,0.409278 0,0.08682 -0.124023,0.248046 -0.334863,0.458887 -1.079004,1.723926 -0.657324,1.103809 -1.153418,2.244824 z m -0.08682,-2.864941 q -0.173633,-0.186035 -0.173633,-0.260449 0,-0.111621 0.186035,-0.285254 0.620117,-0.595313 1.00459,-1.240234 0.310058,-0.508497 0.310058,-0.79375 0,-0.334864 -0.310058,-0.334864 -0.533301,0 -1.525488,1.016992 -1.178223,1.203028 -1.835547,2.691309 -0.322461,0.744141 -0.322461,1.141016 0,0.223242 0.09922,0.334863 0.09922,0.111621 0.285253,0.111621 0.434082,0 1.21543,-0.892969 0.496094,-0.570508 0.843359,-1.116211 0.235645,-0.359668 0.223242,-0.37207 z m -2.344043,5.419824 q -1.63711,0.694531 -2.889746,2.108399 -0.582911,0.657324 -0.830957,1.389062 -0.07441,0.223242 -0.07441,0.37207 0,0.161231 0.07441,0.285254 0.136425,0.223242 0.384472,0.223242 0.768946,0 1.79834,-1.649511 0.892969,-1.42627 1.537891,-2.728516 z"
         id="path1371" />
      <path
         d="m 88.159792,73.906334 v 0.223242 q 0,0.272852 0.136426,0.471289 0.310058,0.458887 1.016992,0.458887 1.550293,0 3.584277,-2.38125 0.359668,-0.409277 0.607715,-0.409277 0.136426,0 0.248047,0.136425 0.07441,0.09922 0.07441,0.186036 0,0.483691 -1.190625,1.637109 -0.930176,0.905371 -1.984375,1.475879 -1.054199,0.570508 -1.95957,0.570508 -0.930176,0 -1.463477,-0.644922 -0.359668,-0.446485 -0.359668,-1.21543 0,-2.095996 1.971973,-4.105176 1.599902,-1.637109 2.790527,-1.637109 0.322461,0 0.58291,0.198437 0.322461,0.26045 0.322461,0.682129 0,0.657325 -0.607715,1.612305 -1.252636,1.984375 -3.770312,2.740918 z m 0.272852,-0.967383 q 0.868164,-0.297656 1.364257,-0.669726 0.868164,-0.669727 1.37666,-1.513086 0.186036,-0.297657 0.186036,-0.533301 0,-0.248047 -0.235645,-0.248047 -0.322461,0 -0.917773,0.483691 -1.066602,0.855762 -1.773535,2.480469 z"
         id="path1373" />
      <path
         d="m 96.419753,72.207213 q 1.21543,-1.302246 2.80293,-2.542481 0.570508,-0.446484 1.215427,-0.830957 0.32246,-0.186035 0.40928,-0.186035 0.18604,0 0.37207,0.272852 0.11162,0.148828 0.11162,0.272851 0,0.223243 -0.47129,0.607715 -1.265037,1.00459 -1.265037,1.513086 0,0.285254 0.322461,0.285254 0.533296,0 1.835546,-0.880566 0.22324,-0.148828 0.37207,-0.148828 0.0992,0 0.19844,0.09922 0.11162,0.111621 0.11162,0.235645 0,0.37207 -1.0418,1.141015 -1.0914,0.818555 -2.071188,0.818555 -0.396875,0 -0.731739,-0.21084 -0.285254,-0.173633 -0.285254,-0.620117 0,-0.310058 0.26045,-0.706933 -0.979785,0.694531 -2.306836,2.381249 -0.768946,1.041797 -1.525488,2.567286 -0.285254,0.570507 -0.706934,0.570507 -0.458887,0 -0.458887,-0.434082 0,-0.421679 0.719336,-2.257226 1.066602,-2.728516 2.232422,-4.229199 0.719336,-0.930176 1.203027,-0.930176 0.161231,0 0.297657,0.09922 0.16123,0.124023 0.16123,0.310058 0,0.186035 -0.248047,0.520899 -0.04961,0.06201 -0.657324,0.830957 -0.558106,0.731738 -0.855762,1.451074 z"
         id="path1375" />
    </g>
  </g>
</svg>
